<?xml version="1.0" encoding="UTF-8" standalone="no"?>
<!-- Created with Inkscape (http://www.inkscape.org/) -->

<svg
   width="800mm"
   height="800mm"
   viewBox="0 0 800 800"
   version="1.1"
   id="svg1"
   xmlns:inkscape="http://www.inkscape.org/namespaces/inkscape"
   xmlns:sodipodi="http://sodipodi.sourceforge.net/DTD/sodipodi-0.dtd"
   xmlns="http://www.w3.org/2000/svg"
   xmlns:svg="http://www.w3.org/2000/svg">
  <sodipodi:namedview
     id="namedview1"
     pagecolor="#505050"
     bordercolor="#eeeeee"
     borderopacity="1"
     inkscape:showpageshadow="0"
     inkscape:pageopacity="0"
     inkscape:pagecheckerboard="0"
     inkscape:deskcolor="#505050"
     inkscape:document-units="mm">
    <inkscape:page
       x="0"
       y="0"
       width="800"
       height="800"
       id="page2"
       margin="0"
       bleed="0" />
  </sodipodi:namedview>
  <defs
     id="defs1" />
  <g
     inkscape:label="Layer 1"
     inkscape:groupmode="layer"
     id="layer1">
    <path
       id="path1"
       style="fill:#ffffff;stroke-width:16.4441;stroke-linecap:round;stroke-linejoin:round"
       d="m 493.68783,241.5656 a 61.228697,61.228697 0 0 0 -8.29999,0.26229 L 261.222,264.19896 a 77.056606,77.056606 0 0 0 -69.2192,71.33032 l -6.77098,97.37494 a 54.264915,54.264915 0 0 0 51.36808,57.95861 l 5.16236,0.26343 a 7.3619891,7.3619891 0 0 1 6.83102,8.85801 l -10.65896,51.0259 a 6.9387146,6.9387146 0 0 0 11.16259,6.80779 l 82.92771,-67.25397 a 25.479014,25.479014 0 0 1 15.22081,-5.67646 l 145.03263,-4.71652 a 67.178136,67.178136 0 0 0 64.93693,-69.93103 L 552.64407,300.21252 A 61.228697,61.228697 0 0 0 493.68783,241.5656 Z m -163.98564,45.52731 a 3.7507177,3.6865444 82.93388 0 1 0.99848,0.14899 l 175.52694,51.85641 a 8.9813016,8.8276352 82.93388 0 1 2.67055,15.97258 l -129.20565,92.43777 a 2.7259615,2.6793214 82.93388 0 1 -4.05596,-3.20363 l 12.86298,-34.62023 a 7.5987964,7.4687841 82.93388 0 0 -7.85443,-10.2607 l -125.62047,14.34073 a 8.3662952,8.2231513 82.93388 0 1 -3.52684,-16.26659 l 117.3134,-38.82376 a 9.6786054,9.5130085 82.93388 0 0 3.93897,-15.81622 l -45.74542,-49.45269 a 3.7507177,3.6865444 82.93388 0 1 2.69745,-6.31266 z"
       transform="matrix(1.8243662,0,0,1.8243662,-277.1809,-330.56096)" />
  </g>
</svg>
